<svg xmlns="http://www.w3.org/2000/svg" xmlns:v="https://svgstorm.com"
viewBox = "0 0 1745 1467"
width="1745"
height="1467">
<g fill="None" fill-opacity="0.0" stroke="#000000" stroke-opacity="0.00" stroke-width="0.3"><path d="
M 0.00 1116.00 
C 17.95 1096.25 41.10 1119.62 60.67 1128.33 C 80.25 1137.03 100.01 1150.65 120.25 1159.75 C 140.48 1168.86 161.37 1179.35 182.23 1188.77 C 203.09 1198.19 225.04 1206.49 246.68 1215.32 C 268.32 1224.16 290.08 1232.66 312.68 1240.32 C 335.28 1247.99 357.72 1256.02 381.08 1262.92 C 404.43 1269.83 427.87 1276.65 452.01 1282.99 C 476.15 1289.34 501.02 1294.52 526.00 1300.00 C 550.98 1305.48 576.18 1310.44 602.02 1314.98 C 627.87 1319.51 655.23 1323.01 682.00 1326.00 C 708.77 1328.99 737.63 1333.60 765.00 1335.00
C 766.65 1335.08 768.34 1335.00 770.00 1335.00
C 796.82 1335.00 822.77 1340.27 850.00 1339.00 C 877.23 1337.73 906.74 1341.64 934.00 1339.00
C 935.75 1338.83 938.59 1338.05 941.00 1338.00
C 1007.55 1336.67 1082.21 1329.64 1145.67 1319.67 C 1209.13 1309.70 1269.57 1297.04 1329.22 1280.22 C 1388.88 1263.40 1440.54 1248.44 1497.00 1225.00
C 1498.02 1224.58 1499.01 1224.39 1500.00 1224.00
C 1523.75 1214.62 1543.46 1200.46 1571.00 1202.00 C 1598.54 1203.54 1596.60 1244.45 1575.25 1255.25 C 1553.91 1266.06 1540.22 1281.50 1519.25 1292.25 C 1498.28 1303.01 1480.96 1315.29 1459.77 1325.77 C 1438.58 1336.25 1418.69 1346.13 1396.92 1355.92 C 1375.15 1365.71 1352.65 1374.47 1329.78 1382.78 C 1306.90 1391.09 1284.87 1399.94 1260.92 1406.92 C 1236.98 1413.91 1212.92 1421.03 1187.98 1426.98 C 1163.03 1432.92 1137.96 1439.31 1111.99 1443.99 C 1086.02 1448.67 1059.01 1454.19 1031.93 1456.93 C 1004.85 1459.66 973.82 1465.03 946.00 1465.00
C 945.50 1465.00 944.50 1465.01 944.00 1465.00
C 939.92 1466.73 933.88 1464.96 930.00 1467.00
L 1745.00 1467.00
L 1745.00 1155.00
C 1744.50 1155.00 1744.00 1155.00 1744.00 1155.00
C 1744.36 1172.11 1738.75 1192.61 1736.02 1209.02 C 1733.30 1225.44 1726.41 1242.09 1721.22 1257.22 C 1716.04 1272.36 1709.17 1287.16 1701.70 1300.70 C 1694.22 1314.23 1686.07 1327.52 1677.23 1339.23 C 1668.39 1350.94 1659.25 1364.22 1649.25 1373.25 C 1639.25 1382.27 1626.93 1402.88 1611.26 1395.74 C 1595.59 1388.60 1611.29 1364.84 1615.92 1351.92 C 1620.56 1339.01 1627.90 1320.29 1632.98 1305.98 C 1638.05 1291.66 1643.62 1274.56 1648.32 1259.32 C 1653.03 1244.08 1657.35 1223.83 1660.00 1208.00 C 1662.65 1192.16 1666.51 1170.10 1651.75 1159.25 C 1636.99 1148.40 1620.57 1146.65 1603.00 1145.00
C 1581.16 1142.95 1555.87 1143.26 1534.00 1145.00
C 1516.22 1146.41 1499.89 1149.11 1482.00 1150.00 C 1464.11 1150.89 1449.19 1155.19 1430.99 1155.99 C 1412.79 1156.80 1415.80 1131.53 1429.75 1125.75 C 1443.70 1119.98 1452.83 1110.30 1467.03 1105.03 C 1481.22 1099.76 1493.31 1093.64 1508.67 1089.67 C 1524.03 1085.70 1538.82 1082.04 1555.22 1079.22 C 1571.62 1076.40 1591.82 1076.29 1609.00 1075.00 C 1626.18 1073.71 1646.10 1075.23 1663.00 1076.00 C 1679.90 1076.77 1695.59 1081.51 1711.07 1084.93 C 1726.56 1088.34 1738.60 1094.21 1745.00 1109.00
L 1745.00 0.00
L 932.00 0.00
C 933.37 0.81 936.57 1.68 938.00 2.00
C 1026.68 9.04 1112.52 29.98 1184.30 85.70 C 1256.08 141.41 1285.00 232.90 1285.00 322.00
C 1285.93 331.56 1285.02 342.85 1286.00 353.00
C 1289.67 390.88 1286.18 430.17 1287.00 469.00 C 1287.82 507.83 1287.00 548.04 1287.00 587.00
C 1287.00 601.33 1287.00 615.67 1287.00 630.00
C 1287.00 640.00 1287.00 650.00 1287.00 660.00
C 1287.00 668.33 1287.00 676.67 1287.00 685.00
C 1287.00 691.41 1287.02 698.33 1286.00 704.00
C 1285.70 708.37 1285.00 712.40 1285.00 717.00
C 1285.00 725.29 1284.55 733.72 1285.00 742.00
C 1285.92 759.01 1288.85 777.15 1292.78 793.22 C 1296.71 809.29 1301.84 824.01 1308.75 838.25 C 1315.67 852.48 1321.32 865.02 1330.75 877.25 C 1340.18 889.47 1347.05 900.55 1356.77 912.23 C 1366.49 923.91 1372.92 944.46 1364.70 957.70 C 1356.47 970.93 1344.84 977.90 1334.25 988.25 C 1323.66 998.60 1312.07 1005.56 1301.25 1016.25 C 1290.43 1026.94 1279.87 1034.12 1269.25 1043.26 C 1258.62 1052.41 1248.38 1062.77 1236.77 1071.77 C 1225.16 1080.77 1215.33 1090.64 1202.75 1099.75 C 1190.18 1108.87 1168.68 1106.59 1156.92 1097.08 C 1145.16 1087.57 1134.32 1079.94 1124.25 1068.75 C 1114.17 1057.57 1103.59 1048.24 1095.25 1036.75 C 1086.90 1025.27 1075.32 1012.17 1068.70 1001.30 C 1062.08 990.44 1051.73 968.88 1039.75 980.75 C 1027.78 992.63 1019.64 999.47 1008.25 1010.25 C 996.86 1021.03 987.34 1029.36 975.30 1038.30 C 963.27 1047.25 952.42 1055.45 938.92 1062.92 C 925.42 1070.40 912.89 1078.43 897.92 1083.92 C 882.96 1089.42 867.22 1094.16 851.32 1098.32 C 835.43 1102.49 819.56 1106.61 802.98 1108.98 C 786.39 1111.34 768.97 1113.94 750.93 1113.93 C 732.88 1113.92 709.61 1114.03 692.75 1111.80 C 675.90 1109.58 657.79 1105.67 642.00 1102.00 C 626.21 1098.34 610.63 1092.08 596.31 1086.70 C 581.98 1081.31 571.69 1075.03 558.75 1067.25 C 545.82 1059.46 534.65 1051.86 523.30 1041.70 C 511.94 1031.55 502.38 1021.35 493.75 1009.25 C 485.11 997.16 476.53 985.95 470.08 971.92 C 463.62 957.90 457.08 944.22 452.22 928.78 C 447.37 913.33 443.75 895.69 441.01 878.99 C 438.27 862.30 435.00 844.51 435.00 827.00
C 434.41 820.89 433.24 814.92 433.00 808.00 C 432.76 801.08 433.98 792.83 435.00 788.00
C 435.00 768.31 438.11 747.83 441.33 729.33 C 444.55 710.83 451.88 693.70 457.92 676.92 C 463.97 660.15 471.62 645.46 480.75 630.75 C 489.89 616.05 497.79 601.41 508.75 588.75 C 519.72 576.10 530.63 565.87 542.75 553.75 C 554.87 541.64 567.41 532.85 581.25 523.25 C 595.09 513.64 610.34 506.13 626.08 498.08 C 641.81 490.02 657.93 484.34 675.07 478.07 C 692.22 471.81 710.74 467.58 729.00 463.00 C 747.26 458.42 766.95 453.21 786.07 450.07 C 805.20 446.94 823.70 443.84 842.75 441.60 C 861.79 439.36 882.77 435.88 902.00 434.00 C 921.23 432.12 944.99 430.30 964.22 428.22 C 983.45 426.14 1011.35 429.96 1010.00 407.00 C 1008.65 384.04 1011.44 359.99 1009.00 339.00 C 1006.57 318.01 1005.19 298.29 997.68 280.32 C 990.16 262.35 982.96 252.60 969.25 239.75 C 955.53 226.90 942.70 222.77 925.75 216.20 C 908.81 209.63 884.26 209.84 866.00 210.00 C 847.74 210.16 826.77 213.88 809.93 220.93 C 793.08 227.97 779.77 233.90 766.25 246.25 C 752.73 258.59 743.68 267.88 735.23 284.23 C 726.78 300.58 722.60 317.87 717.03 336.02 C 711.45 354.18 691.31 363.68 672.00 360.00 C 652.69 356.32 631.54 356.05 612.26 353.40 C 592.97 350.76 571.57 349.56 551.99 347.01 C 532.42 344.45 512.09 343.57 493.25 340.61 C 474.41 337.64 464.31 317.66 467.33 300.33 C 470.35 283.00 476.11 261.45 481.78 244.78 C 487.44 228.10 494.54 212.02 502.75 196.75 C 510.97 181.49 518.72 167.00 528.92 153.92 C 539.11 140.84 549.19 128.57 561.75 116.75 C 574.31 104.93 585.23 95.21 599.25 85.25 C 613.26 75.29 626.87 67.34 642.22 59.22 C 657.58 51.11 673.85 43.87 690.68 37.68 C 707.50 31.49 724.95 25.56 743.03 21.02 C 761.10 16.49 779.27 12.17 798.03 9.02 C 816.78 5.87 839.25 3.57 859.00 2.00
C 860.48 1.67 863.71 0.96 865.00 0.00
L 0.00 0.00
L 0.00 1116.00 Z"/>
</g>
<g fill="None" fill-opacity="0.0" stroke="#000000" stroke-opacity="0.38" stroke-width="0.3"><path d="
M 859.00 2.00 
C 869.62 1.16 879.02 1.00 890.00 1.00
C 889.96 1.00 890.00 0.00 890.00 0.00
L 865.00 0.00
C 863.71 0.96 860.48 1.67 859.00 2.00 Z"/>
</g>
<g fill="None" fill-opacity="0.0" stroke="#000000" stroke-opacity="0.61" stroke-width="0.3"><path d="
M 890.00 1.00 
C 896.33 1.00 902.67 1.00 909.00 1.00
C 908.96 1.00 909.00 0.00 909.00 0.00
L 890.00 0.00
C 890.00 0.00 889.96 1.00 890.00 1.00 Z"/>
</g>
<g fill="None" fill-opacity="0.0" stroke="#000000" stroke-opacity="0.38" stroke-width="0.3"><path d="
M 909.00 1.00 
C 919.32 1.00 927.98 1.20 938.00 2.00
C 936.57 1.68 933.37 0.81 932.00 0.00
L 909.00 0.00
C 909.00 0.00 908.96 1.00 909.00 1.00 Z"/>
</g>
<g fill="None" fill-opacity="0.0" stroke="#000000" stroke-opacity="1.00" stroke-width="0.3"><path d="
M 859.00 2.00 
C 839.25 3.57 816.78 5.87 798.03 9.02 C 779.27 12.17 761.10 16.49 743.03 21.02 C 724.95 25.56 707.50 31.49 690.68 37.68 C 673.85 43.87 657.58 51.11 642.22 59.22 C 626.87 67.34 613.26 75.29 599.25 85.25 C 585.23 95.21 574.31 104.93 561.75 116.75 C 549.19 128.57 539.11 140.84 528.92 153.92 C 518.72 167.00 510.97 181.49 502.75 196.75 C 494.54 212.02 487.44 228.10 481.78 244.78 C 476.11 261.45 470.35 283.00 467.33 300.33 C 464.31 317.66 474.41 337.64 493.25 340.61 C 512.09 343.57 532.42 344.45 551.99 347.01 C 571.57 349.56 592.97 350.76 612.26 353.40 C 631.54 356.05 652.69 356.32 672.00 360.00 C 691.31 363.68 711.45 354.18 717.03 336.02 C 722.60 317.87 726.78 300.58 735.23 284.23 C 743.68 267.88 752.73 258.59 766.25 246.25 C 779.77 233.90 793.08 227.97 809.93 220.93 C 826.77 213.88 847.74 210.16 866.00 210.00 C 884.26 209.84 908.81 209.63 925.75 216.20 C 942.70 222.77 955.53 226.90 969.25 239.75 C 982.96 252.60 990.16 262.35 997.68 280.32 C 1005.19 298.29 1006.57 318.01 1009.00 339.00 C 1011.44 359.99 1008.65 384.04 1010.00 407.00 C 1011.35 429.96 983.45 426.14 964.22 428.22 C 944.99 430.30 921.23 432.12 902.00 434.00 C 882.77 435.88 861.79 439.36 842.75 441.60 C 823.70 443.84 805.20 446.94 786.07 450.07 C 766.95 453.21 747.26 458.42 729.00 463.00 C 710.74 467.58 692.22 471.81 675.07 478.07 C 657.93 484.34 641.81 490.02 626.08 498.08 C 610.34 506.13 595.09 513.64 581.25 523.25 C 567.41 532.85 554.87 541.64 542.75 553.75 C 530.63 565.87 519.72 576.10 508.75 588.75 C 497.79 601.41 489.89 616.05 480.75 630.75 C 471.62 645.46 463.97 660.15 457.92 676.92 C 451.88 693.70 444.55 710.83 441.33 729.33 C 438.11 747.83 435.00 768.31 435.00 788.00
C 435.00 801.00 435.00 814.00 435.00 827.00
C 435.00 844.51 438.27 862.30 441.01 878.99 C 443.75 895.69 447.37 913.33 452.22 928.78 C 457.08 944.22 463.62 957.90 470.08 971.92 C 476.53 985.95 485.11 997.16 493.75 1009.25 C 502.38 1021.35 511.94 1031.55 523.30 1041.70 C 534.65 1051.86 545.82 1059.46 558.75 1067.25 C 571.69 1075.03 581.98 1081.31 596.31 1086.70 C 610.63 1092.08 626.21 1098.34 642.00 1102.00 C 657.79 1105.67 675.90 1109.58 692.75 1111.80 C 709.61 1114.03 732.88 1113.92 750.93 1113.93 C 768.97 1113.94 786.39 1111.34 802.98 1108.98 C 819.56 1106.61 835.43 1102.49 851.32 1098.32 C 867.22 1094.16 882.96 1089.42 897.92 1083.92 C 912.89 1078.43 925.42 1070.40 938.92 1062.92 C 952.42 1055.45 963.27 1047.25 975.30 1038.30 C 987.34 1029.36 996.86 1021.03 1008.25 1010.25 C 1019.64 999.47 1027.78 992.63 1039.75 980.75 C 1051.73 968.88 1062.08 990.44 1068.70 1001.30 C 1075.32 1012.17 1086.90 1025.27 1095.25 1036.75 C 1103.59 1048.24 1114.17 1057.57 1124.25 1068.75 C 1134.32 1079.94 1145.16 1087.57 1156.92 1097.08 C 1168.68 1106.59 1190.18 1108.87 1202.75 1099.75 C 1215.33 1090.64 1225.16 1080.77 1236.77 1071.77 C 1248.38 1062.77 1258.62 1052.41 1269.25 1043.26 C 1279.87 1034.12 1290.43 1026.94 1301.25 1016.25 C 1312.07 1005.56 1323.66 998.60 1334.25 988.25 C 1344.84 977.90 1356.47 970.93 1364.70 957.70 C 1372.92 944.46 1366.49 923.91 1356.77 912.23 C 1347.05 900.55 1340.18 889.47 1330.75 877.25 C 1321.32 865.02 1315.67 852.48 1308.75 838.25 C 1301.84 824.01 1296.71 809.29 1292.78 793.22 C 1288.85 777.15 1285.92 759.01 1285.00 742.00
C 1283.73 734.15 1284.25 724.75 1285.00 717.00
C 1285.00 712.40 1285.70 708.37 1286.00 704.00
C 1286.43 697.73 1286.00 691.28 1286.00 685.00
C 1286.00 676.67 1286.00 668.33 1286.00 660.00
C 1286.00 650.16 1286.95 639.79 1286.00 630.00
C 1284.12 610.58 1285.00 589.17 1285.00 569.00
C 1285.00 557.67 1285.00 546.33 1285.00 535.00
C 1285.00 474.33 1285.00 413.67 1285.00 353.00
C 1285.00 342.67 1285.00 332.33 1285.00 322.00
C 1285.00 232.90 1256.08 141.41 1184.30 85.70 C 1112.52 29.98 1026.68 9.04 938.00 2.00
C 927.98 1.20 919.32 1.00 909.00 1.00
C 902.67 1.00 896.33 1.00 890.00 1.00
C 879.02 1.00 869.62 1.16 859.00 2.00
M 1010.00 595.00 
C 1010.00 623.17 1009.00 651.72 1009.00 680.00
C 1009.00 699.66 1006.26 723.41 1003.67 741.67 C 1001.08 759.93 994.97 776.94 988.69 793.69 C 982.42 810.45 974.17 825.11 964.75 839.75 C 955.33 854.38 946.67 865.45 933.25 877.25 C 919.83 889.04 906.37 896.90 889.92 903.92 C 873.48 910.95 852.01 916.45 833.33 915.67 C 814.65 914.89 795.50 909.14 779.92 900.08 C 764.35 891.01 754.19 880.62 744.25 865.75 C 734.31 850.89 728.19 833.91 725.00 816.00 C 721.82 798.08 719.99 772.95 721.33 754.33 C 722.67 735.71 725.88 717.87 732.92 700.92 C 739.97 683.98 746.83 670.82 758.31 657.31 C 769.78 643.79 781.70 634.78 796.08 625.08 C 810.46 615.38 825.63 608.62 842.23 602.23 C 858.82 595.84 880.81 592.62 898.25 589.80 C 915.68 586.98 942.49 581.97 960.01 583.01 C 977.53 584.05 1010.00 569.30 1010.00 595.00 Z"/>
</g>
<g fill="None" fill-opacity="0.0" stroke="#000000" stroke-opacity="0.46" stroke-width="0.3"><path d="
M 1285.00 353.00 
C 1285.00 352.96 1286.00 353.00 1286.00 353.00
C 1285.02 342.85 1285.93 331.56 1285.00 322.00
C 1285.00 332.33 1285.00 342.67 1285.00 353.00 Z"/>
</g>
<g fill="None" fill-opacity="0.0" stroke="#010101" stroke-opacity="0.62" stroke-width="0.3"><path d="
M 1285.00 535.00 
C 1285.00 534.96 1286.00 535.00 1286.00 535.00
C 1286.00 504.78 1287.03 474.18 1286.00 444.00 C 1284.97 413.82 1288.74 383.04 1286.00 353.00
C 1286.00 353.00 1285.00 352.96 1285.00 353.00
C 1285.00 413.67 1285.00 474.33 1285.00 535.00 Z"/>
</g>
<g fill="None" fill-opacity="0.0" stroke="#000000" stroke-opacity="0.11" stroke-width="0.3"><path d="
M 1286.00 535.00 
C 1286.00 546.33 1286.00 557.67 1286.00 569.00
C 1286.00 575.00 1286.00 581.00 1286.00 587.00
C 1286.00 586.96 1287.00 587.00 1287.00 587.00
C 1287.00 548.04 1287.82 507.83 1287.00 469.00 C 1286.18 430.17 1289.67 390.88 1286.00 353.00
C 1288.74 383.04 1284.97 413.82 1286.00 444.00 C 1287.03 474.18 1286.00 504.78 1286.00 535.00 Z"/>
</g>
<g fill="None" fill-opacity="0.0" stroke="#000101" stroke-opacity="0.73" stroke-width="0.3"><path d="
M 1285.00 569.00 
C 1285.00 568.96 1286.00 569.00 1286.00 569.00
C 1286.00 557.67 1286.00 546.33 1286.00 535.00
C 1286.00 535.00 1285.00 534.96 1285.00 535.00
C 1285.00 546.33 1285.00 557.67 1285.00 569.00 Z"/>
</g>
<g fill="None" fill-opacity="0.0" stroke="#010101" stroke-opacity="0.89" stroke-width="0.3"><path d="
M 1286.00 630.00 
C 1284.72 615.93 1286.00 601.14 1286.00 587.00
C 1286.00 581.00 1286.00 575.00 1286.00 569.00
C 1286.00 569.00 1285.00 568.96 1285.00 569.00
C 1285.00 589.17 1284.12 610.58 1286.00 630.00 Z"/>
</g>
<g fill="None" fill-opacity="0.0" stroke="#000000" stroke-opacity="0.00" stroke-width="0.3"><path d="
M 1009.00 680.00 
C 1008.15 671.25 1007.98 661.49 1008.00 652.00 C 1008.03 642.51 1008.52 632.51 1008.00 623.00 C 1007.48 613.49 1008.46 602.29 1010.00 595.00
C 1010.00 569.30 977.53 584.05 960.01 583.01 C 942.49 581.97 915.68 586.98 898.25 589.80 C 880.81 592.62 858.82 595.84 842.23 602.23 C 825.63 608.62 810.46 615.38 796.08 625.08 C 781.70 634.78 769.78 643.79 758.31 657.31 C 746.83 670.82 739.97 683.98 732.92 700.92 C 725.88 717.87 722.67 735.71 721.33 754.33 C 719.99 772.95 721.82 798.08 725.00 816.00 C 728.19 833.91 734.31 850.89 744.25 865.75 C 754.19 880.62 764.35 891.01 779.92 900.08 C 795.50 909.14 814.65 914.89 833.33 915.67 C 852.01 916.45 873.48 910.95 889.92 903.92 C 906.37 896.90 919.83 889.04 933.25 877.25 C 946.67 865.45 955.33 854.38 964.75 839.75 C 974.17 825.11 982.42 810.45 988.69 793.69 C 994.97 776.94 1001.08 759.93 1003.67 741.67 C 1006.26 723.41 1009.00 699.66 1009.00 680.00 Z"/>
</g>
<g fill="None" fill-opacity="0.0" stroke="#000000" stroke-opacity="0.38" stroke-width="0.3"><path d="
M 1286.00 630.00 
C 1286.00 629.96 1287.00 630.00 1287.00 630.00
C 1287.00 615.67 1287.00 601.33 1287.00 587.00
C 1287.00 587.00 1286.00 586.96 1286.00 587.00
C 1286.00 601.14 1284.72 615.93 1286.00 630.00 Z"/>
</g>
<g fill="None" fill-opacity="0.0" stroke="#000000" stroke-opacity="0.37" stroke-width="0.3"><path d="
M 1009.00 680.00 
C 1009.00 651.72 1010.00 623.17 1010.00 595.00
C 1008.46 602.29 1007.48 613.49 1008.00 623.00 C 1008.52 632.51 1008.03 642.51 1008.00 652.00 C 1007.98 661.49 1008.15 671.25 1009.00 680.00 Z"/>
</g>
<g fill="None" fill-opacity="0.0" stroke="#000000" stroke-opacity="0.55" stroke-width="0.3"><path d="
M 1286.00 660.00 
C 1286.00 659.96 1287.00 660.00 1287.00 660.00
C 1287.00 650.00 1287.00 640.00 1287.00 630.00
C 1287.00 630.00 1286.00 629.96 1286.00 630.00
C 1286.95 639.79 1286.00 650.16 1286.00 660.00 Z"/>
</g>
<g fill="None" fill-opacity="0.0" stroke="#000000" stroke-opacity="0.38" stroke-width="0.3"><path d="
M 1286.00 685.00 
C 1286.00 684.96 1287.00 685.00 1287.00 685.00
C 1287.00 676.67 1287.00 668.33 1287.00 660.00
C 1287.00 660.00 1286.00 659.96 1286.00 660.00
C 1286.00 668.33 1286.00 676.67 1286.00 685.00 Z"/>
</g>
<g fill="None" fill-opacity="0.0" stroke="#000000" stroke-opacity="0.15" stroke-width="0.3"><path d="
M 1286.00 704.00 
C 1287.02 698.33 1287.00 691.41 1287.00 685.00
C 1287.00 685.00 1286.00 684.96 1286.00 685.00
C 1286.00 691.28 1286.43 697.73 1286.00 704.00 Z"/>
</g>
<g fill="None" fill-opacity="0.0" stroke="#000101" stroke-opacity="0.77" stroke-width="0.3"><path d="
M 1285.00 742.00 
C 1284.55 733.72 1285.00 725.29 1285.00 717.00
C 1284.25 724.75 1283.73 734.15 1285.00 742.00 Z"/>
</g>
<g fill="None" fill-opacity="0.0" stroke="#000000" stroke-opacity="0.42" stroke-width="0.3"><path d="
M 435.00 827.00 
C 435.00 814.00 435.00 801.00 435.00 788.00
C 433.98 792.83 432.76 801.08 433.00 808.00 C 433.24 814.92 434.41 820.89 435.00 827.00 Z"/>
</g>
<g fill="None" fill-opacity="0.0" stroke="#F5A718" stroke-opacity="0.96" stroke-width="0.3"><path d="
M 1534.00 1145.00 
C 1552.98 1141.34 1584.40 1139.20 1603.00 1145.00
C 1620.57 1146.65 1636.99 1148.40 1651.75 1159.25 C 1666.51 1170.10 1662.65 1192.16 1660.00 1208.00 C 1657.35 1223.83 1653.03 1244.08 1648.32 1259.32 C 1643.62 1274.56 1638.05 1291.66 1632.98 1305.98 C 1627.90 1320.29 1620.56 1339.01 1615.92 1351.92 C 1611.29 1364.84 1595.59 1388.60 1611.26 1395.74 C 1626.93 1402.88 1639.25 1382.27 1649.25 1373.25 C 1659.25 1364.22 1668.39 1350.94 1677.23 1339.23 C 1686.07 1327.52 1694.22 1314.23 1701.70 1300.70 C 1709.17 1287.16 1716.04 1272.36 1721.22 1257.22 C 1726.41 1242.09 1733.30 1225.44 1736.02 1209.02 C 1738.75 1192.61 1744.36 1172.11 1744.00 1155.00
C 1739.59 1152.85 1746.07 1136.22 1745.00 1132.00
L 1745.00 1109.00
C 1738.60 1094.21 1726.56 1088.34 1711.07 1084.93 C 1695.59 1081.51 1679.90 1076.77 1663.00 1076.00 C 1646.10 1075.23 1626.18 1073.71 1609.00 1075.00 C 1591.82 1076.29 1571.62 1076.40 1555.22 1079.22 C 1538.82 1082.04 1524.03 1085.70 1508.67 1089.67 C 1493.31 1093.64 1481.22 1099.76 1467.03 1105.03 C 1452.83 1110.30 1443.70 1119.98 1429.75 1125.75 C 1415.80 1131.53 1412.79 1156.80 1430.99 1155.99 C 1449.19 1155.19 1464.11 1150.89 1482.00 1150.00 C 1499.89 1149.11 1516.22 1146.41 1534.00 1145.00 Z"/>
</g>
<g fill="None" fill-opacity="0.0" stroke="#F6A818" stroke-opacity="0.98" stroke-width="0.3"><path d="
M 0.00 1116.00 
L 0.00 1129.00
C 30.01 1162.64 64.61 1188.50 101.23 1215.77 C 137.85 1243.04 173.82 1267.91 214.75 1291.25 C 255.68 1314.59 294.67 1336.73 339.08 1355.92 C 383.49 1375.11 427.97 1393.05 476.08 1407.92 C 524.18 1422.80 576.45 1435.75 628.22 1444.78 C 679.99 1453.81 742.66 1463.47 797.00 1465.00
C 800.70 1464.36 805.72 1462.87 811.00 1464.00
C 828.25 1467.70 848.60 1466.00 867.00 1466.00
C 874.00 1466.00 881.00 1466.00 888.00 1466.00
C 903.76 1466.00 921.31 1467.15 936.00 1464.00
C 940.41 1463.06 943.14 1464.40 946.00 1465.00
C 973.82 1465.03 1004.85 1459.66 1031.93 1456.93 C 1059.01 1454.19 1086.02 1448.67 1111.99 1443.99 C 1137.96 1439.31 1163.03 1432.92 1187.98 1426.98 C 1212.92 1421.03 1236.98 1413.91 1260.92 1406.92 C 1284.87 1399.94 1306.90 1391.09 1329.78 1382.78 C 1352.65 1374.47 1375.15 1365.71 1396.92 1355.92 C 1418.69 1346.13 1438.58 1336.25 1459.77 1325.77 C 1480.96 1315.29 1498.28 1303.01 1519.25 1292.25 C 1540.22 1281.50 1553.91 1266.06 1575.25 1255.25 C 1596.60 1244.45 1598.54 1203.54 1571.00 1202.00 C 1543.46 1200.46 1523.75 1214.62 1500.00 1224.00
C 1498.23 1224.99 1498.19 1224.75 1497.00 1225.00
C 1440.54 1248.44 1388.88 1263.40 1329.22 1280.22 C 1269.57 1297.04 1209.13 1309.70 1145.67 1319.67 C 1082.21 1329.64 1007.55 1336.67 941.00 1338.00
C 938.43 1338.52 936.98 1339.23 934.00 1339.00
C 906.74 1341.64 877.23 1337.73 850.00 1339.00 C 822.77 1340.27 796.82 1335.00 770.00 1335.00
C 770.54 1335.11 772.63 1336.30 773.00 1337.00
C 770.52 1336.26 765.18 1338.81 765.00 1335.00
C 737.63 1333.60 708.77 1328.99 682.00 1326.00 C 655.23 1323.01 627.87 1319.51 602.02 1314.98 C 576.18 1310.44 550.98 1305.48 526.00 1300.00 C 501.02 1294.52 476.15 1289.34 452.01 1282.99 C 427.87 1276.65 404.43 1269.83 381.08 1262.92 C 357.72 1256.02 335.28 1247.99 312.68 1240.32 C 290.08 1232.66 268.32 1224.16 246.68 1215.32 C 225.04 1206.49 203.09 1198.19 182.23 1188.77 C 161.37 1179.35 140.48 1168.86 120.25 1159.75 C 100.01 1150.65 80.25 1137.03 60.67 1128.33 C 41.10 1119.62 17.95 1096.25 0.00 1116.00
M 919.00 1340.00 
C 915.58 1342.21 910.18 1340.42 906.00 1341.00
C 909.42 1338.79 914.82 1340.58 919.00 1340.00 Z"/>
</g>
<g fill="None" fill-opacity="0.0" stroke="#000000" stroke-opacity="0.00" stroke-width="0.3"><path d="
M 0.00 1467.00 
L 817.00 1467.00
C 813.22 1466.01 806.77 1465.36 803.00 1465.00
C 801.02 1465.11 798.98 1465.06 797.00 1465.00
C 742.66 1463.47 679.99 1453.81 628.22 1444.78 C 576.45 1435.75 524.18 1422.80 476.08 1407.92 C 427.97 1393.05 383.49 1375.11 339.08 1355.92 C 294.67 1336.73 255.68 1314.59 214.75 1291.25 C 173.82 1267.91 137.85 1243.04 101.23 1215.77 C 64.61 1188.50 30.01 1162.64 0.00 1129.00
L 0.00 1467.00 Z"/>
</g>
<g fill="None" fill-opacity="0.0" stroke="#F3A117" stroke-opacity="0.24" stroke-width="0.3"><path d="
M 1744.00 1155.00 
C 1744.00 1155.00 1744.50 1155.00 1745.00 1155.00
L 1745.00 1132.00
C 1746.07 1136.22 1739.59 1152.85 1744.00 1155.00 Z"/>
</g>
<g fill="None" fill-opacity="0.0" stroke="#EFA819" stroke-opacity="0.38" stroke-width="0.3"><path d="
M 1534.00 1145.00 
C 1555.87 1143.26 1581.16 1142.95 1603.00 1145.00
C 1584.40 1139.20 1552.98 1141.34 1534.00 1145.00 Z"/>
</g>
<g fill="None" fill-opacity="0.0" stroke="#FF8B12" stroke-opacity="0.09" stroke-width="0.3"><path d="
M 1497.00 1225.00 
C 1498.19 1224.75 1498.23 1224.99 1500.00 1224.00
C 1499.01 1224.39 1498.02 1224.58 1497.00 1225.00 Z"/>
</g>
<g fill="None" fill-opacity="0.0" stroke="#F6A718" stroke-opacity="0.51" stroke-width="0.3"><path d="
M 770.00 1335.00 
C 768.34 1335.00 766.65 1335.08 765.00 1335.00
C 765.18 1338.81 770.52 1336.26 773.00 1337.00
C 772.63 1336.30 770.54 1335.11 770.00 1335.00 Z"/>
</g>
<g fill="None" fill-opacity="0.0" stroke="#FCB32B" stroke-opacity="0.18" stroke-width="0.3"><path d="
M 934.00 1339.00 
C 936.98 1339.23 938.43 1338.52 941.00 1338.00
C 938.59 1338.05 935.75 1338.83 934.00 1339.00 Z"/>
</g>
<g fill="None" fill-opacity="0.0" stroke="#F6A718" stroke-opacity="0.72" stroke-width="0.3"><path d="
M 919.00 1340.00 
C 914.82 1340.58 909.42 1338.79 906.00 1341.00
C 910.18 1340.42 915.58 1342.21 919.00 1340.00 Z"/>
</g>
<g fill="None" fill-opacity="0.0" stroke="#F6A719" stroke-opacity="0.64" stroke-width="0.3"><path d="
M 797.00 1465.00 
C 798.98 1465.06 801.02 1465.11 803.00 1465.00
C 805.85 1464.84 808.11 1463.92 811.00 1464.00
C 805.72 1462.87 800.70 1464.36 797.00 1465.00 Z"/>
</g>
<g fill="None" fill-opacity="0.0" stroke="#F6A718" stroke-opacity="0.69" stroke-width="0.3"><path d="
M 936.00 1464.00 
C 938.89 1463.92 941.08 1464.92 944.00 1465.00
C 944.50 1465.01 945.50 1465.00 946.00 1465.00
C 943.14 1464.40 940.41 1463.06 936.00 1464.00 Z"/>
</g>
<g fill="None" fill-opacity="0.0" stroke="#F7A418" stroke-opacity="0.14" stroke-width="0.3"><path d="
M 803.00 1465.00 
C 806.77 1465.36 813.22 1466.01 817.00 1467.00
L 867.00 1467.00
C 867.00 1466.50 867.00 1466.00 867.00 1466.00
C 848.60 1466.00 828.25 1467.70 811.00 1464.00
C 808.11 1463.92 805.85 1464.84 803.00 1465.00 Z"/>
</g>
<g fill="None" fill-opacity="0.0" stroke="#F8A518" stroke-opacity="0.16" stroke-width="0.3"><path d="
M 888.00 1466.00 
C 888.04 1466.00 888.00 1467.00 888.00 1467.00
L 930.00 1467.00
C 933.88 1464.96 939.92 1466.73 944.00 1465.00
C 941.08 1464.92 938.89 1463.92 936.00 1464.00
C 921.31 1467.15 903.76 1466.00 888.00 1466.00 Z"/>
</g>
<g fill="None" fill-opacity="0.0" stroke="#F6A917" stroke-opacity="0.43" stroke-width="0.3"><path d="
M 867.00 1467.00 
L 888.00 1467.00
C 888.00 1467.00 888.04 1466.00 888.00 1466.00
C 881.00 1466.00 874.00 1466.00 867.00 1466.00
C 867.00 1466.00 867.00 1466.50 867.00 1467.00 Z"/>
</g>
<g fill="#000000" fill-opacity="0.00" stroke="None">
<path d="
M 0.00 1116.00 
C 17.95 1096.25 41.10 1119.62 60.67 1128.33 C 80.25 1137.03 100.01 1150.65 120.25 1159.75 C 140.48 1168.86 161.37 1179.35 182.23 1188.77 C 203.09 1198.19 225.04 1206.49 246.68 1215.32 C 268.32 1224.16 290.08 1232.66 312.68 1240.32 C 335.28 1247.99 357.72 1256.02 381.08 1262.92 C 404.43 1269.83 427.87 1276.65 452.01 1282.99 C 476.15 1289.34 501.02 1294.52 526.00 1300.00 C 550.98 1305.48 576.18 1310.44 602.02 1314.98 C 627.87 1319.51 655.23 1323.01 682.00 1326.00 C 708.77 1328.99 737.63 1333.60 765.00 1335.00
C 766.65 1335.08 768.34 1335.00 770.00 1335.00
C 796.82 1335.00 822.77 1340.27 850.00 1339.00 C 877.23 1337.73 906.74 1341.64 934.00 1339.00
C 935.75 1338.83 938.59 1338.05 941.00 1338.00
C 1007.55 1336.67 1082.21 1329.64 1145.67 1319.67 C 1209.13 1309.70 1269.57 1297.04 1329.22 1280.22 C 1388.88 1263.40 1440.54 1248.44 1497.00 1225.00
C 1498.02 1224.58 1499.01 1224.39 1500.00 1224.00
C 1523.75 1214.62 1543.46 1200.46 1571.00 1202.00 C 1598.54 1203.54 1596.60 1244.45 1575.25 1255.25 C 1553.91 1266.06 1540.22 1281.50 1519.25 1292.25 C 1498.28 1303.01 1480.96 1315.29 1459.77 1325.77 C 1438.58 1336.25 1418.69 1346.13 1396.92 1355.92 C 1375.15 1365.71 1352.65 1374.47 1329.78 1382.78 C 1306.90 1391.09 1284.87 1399.94 1260.92 1406.92 C 1236.98 1413.91 1212.92 1421.03 1187.98 1426.98 C 1163.03 1432.92 1137.96 1439.31 1111.99 1443.99 C 1086.02 1448.67 1059.01 1454.19 1031.93 1456.93 C 1004.85 1459.66 973.82 1465.03 946.00 1465.00
C 945.50 1465.00 944.50 1465.01 944.00 1465.00
C 939.92 1466.73 933.88 1464.96 930.00 1467.00
L 1745.00 1467.00
L 1745.00 1155.00
C 1744.50 1155.00 1744.00 1155.00 1744.00 1155.00
C 1744.36 1172.11 1738.75 1192.61 1736.02 1209.02 C 1733.30 1225.44 1726.41 1242.09 1721.22 1257.22 C 1716.04 1272.36 1709.17 1287.16 1701.70 1300.70 C 1694.22 1314.23 1686.07 1327.52 1677.23 1339.23 C 1668.39 1350.94 1659.25 1364.22 1649.25 1373.25 C 1639.25 1382.27 1626.93 1402.88 1611.26 1395.74 C 1595.59 1388.60 1611.29 1364.84 1615.92 1351.92 C 1620.56 1339.01 1627.90 1320.29 1632.98 1305.98 C 1638.05 1291.66 1643.62 1274.56 1648.32 1259.32 C 1653.03 1244.08 1657.35 1223.83 1660.00 1208.00 C 1662.65 1192.16 1666.51 1170.10 1651.75 1159.25 C 1636.99 1148.40 1620.57 1146.65 1603.00 1145.00
C 1581.16 1142.95 1555.87 1143.26 1534.00 1145.00
C 1516.22 1146.41 1499.89 1149.11 1482.00 1150.00 C 1464.11 1150.89 1449.19 1155.19 1430.99 1155.99 C 1412.79 1156.80 1415.80 1131.53 1429.75 1125.75 C 1443.70 1119.98 1452.83 1110.30 1467.03 1105.03 C 1481.22 1099.76 1493.31 1093.64 1508.67 1089.67 C 1524.03 1085.70 1538.82 1082.04 1555.22 1079.22 C 1571.62 1076.40 1591.82 1076.29 1609.00 1075.00 C 1626.18 1073.71 1646.10 1075.23 1663.00 1076.00 C 1679.90 1076.77 1695.59 1081.51 1711.07 1084.93 C 1726.56 1088.34 1738.60 1094.21 1745.00 1109.00
L 1745.00 0.00
L 932.00 0.00
C 933.37 0.81 936.57 1.68 938.00 2.00
C 1026.68 9.04 1112.52 29.98 1184.30 85.70 C 1256.08 141.41 1285.00 232.90 1285.00 322.00
C 1285.93 331.56 1285.02 342.85 1286.00 353.00
C 1289.67 390.88 1286.18 430.17 1287.00 469.00 C 1287.82 507.83 1287.00 548.04 1287.00 587.00
C 1287.00 601.33 1287.00 615.67 1287.00 630.00
C 1287.00 640.00 1287.00 650.00 1287.00 660.00
C 1287.00 668.33 1287.00 676.67 1287.00 685.00
C 1287.00 691.41 1287.02 698.33 1286.00 704.00
C 1285.70 708.37 1285.00 712.40 1285.00 717.00
C 1285.00 725.29 1284.55 733.72 1285.00 742.00
C 1285.92 759.01 1288.85 777.15 1292.78 793.22 C 1296.71 809.29 1301.84 824.01 1308.75 838.25 C 1315.67 852.48 1321.32 865.02 1330.75 877.25 C 1340.18 889.47 1347.05 900.55 1356.77 912.23 C 1366.49 923.91 1372.92 944.46 1364.70 957.70 C 1356.47 970.93 1344.84 977.90 1334.25 988.25 C 1323.66 998.60 1312.07 1005.56 1301.25 1016.25 C 1290.43 1026.94 1279.87 1034.12 1269.25 1043.26 C 1258.62 1052.41 1248.38 1062.77 1236.77 1071.77 C 1225.16 1080.77 1215.33 1090.64 1202.75 1099.75 C 1190.18 1108.87 1168.68 1106.59 1156.92 1097.08 C 1145.16 1087.57 1134.32 1079.94 1124.25 1068.75 C 1114.17 1057.57 1103.59 1048.24 1095.25 1036.75 C 1086.90 1025.27 1075.32 1012.17 1068.70 1001.30 C 1062.08 990.44 1051.73 968.88 1039.75 980.75 C 1027.78 992.63 1019.64 999.47 1008.25 1010.25 C 996.86 1021.03 987.34 1029.36 975.30 1038.30 C 963.27 1047.25 952.42 1055.45 938.92 1062.92 C 925.42 1070.40 912.89 1078.43 897.92 1083.92 C 882.96 1089.42 867.22 1094.16 851.32 1098.32 C 835.43 1102.49 819.56 1106.61 802.98 1108.98 C 786.39 1111.34 768.97 1113.94 750.93 1113.93 C 732.88 1113.92 709.61 1114.03 692.75 1111.80 C 675.90 1109.58 657.79 1105.67 642.00 1102.00 C 626.21 1098.34 610.63 1092.08 596.31 1086.70 C 581.98 1081.31 571.69 1075.03 558.75 1067.25 C 545.82 1059.46 534.65 1051.86 523.30 1041.70 C 511.94 1031.55 502.38 1021.35 493.75 1009.25 C 485.11 997.16 476.53 985.95 470.08 971.92 C 463.62 957.90 457.08 944.22 452.22 928.78 C 447.37 913.33 443.75 895.69 441.01 878.99 C 438.27 862.30 435.00 844.51 435.00 827.00
C 434.41 820.89 433.24 814.92 433.00 808.00 C 432.76 801.08 433.98 792.83 435.00 788.00
C 435.00 768.31 438.11 747.83 441.33 729.33 C 444.55 710.83 451.88 693.70 457.92 676.92 C 463.97 660.15 471.62 645.46 480.75 630.75 C 489.89 616.05 497.79 601.41 508.75 588.75 C 519.72 576.10 530.63 565.87 542.75 553.75 C 554.87 541.64 567.41 532.85 581.25 523.25 C 595.09 513.64 610.34 506.13 626.08 498.08 C 641.81 490.02 657.93 484.34 675.07 478.07 C 692.22 471.81 710.74 467.58 729.00 463.00 C 747.26 458.42 766.95 453.21 786.07 450.07 C 805.20 446.94 823.70 443.84 842.75 441.60 C 861.79 439.36 882.77 435.88 902.00 434.00 C 921.23 432.12 944.99 430.30 964.22 428.22 C 983.45 426.14 1011.35 429.96 1010.00 407.00 C 1008.65 384.04 1011.44 359.99 1009.00 339.00 C 1006.57 318.01 1005.19 298.29 997.68 280.32 C 990.16 262.35 982.96 252.60 969.25 239.75 C 955.53 226.90 942.70 222.77 925.75 216.20 C 908.81 209.63 884.26 209.84 866.00 210.00 C 847.74 210.16 826.77 213.88 809.93 220.93 C 793.08 227.97 779.77 233.90 766.25 246.25 C 752.73 258.59 743.68 267.88 735.23 284.23 C 726.78 300.58 722.60 317.87 717.03 336.02 C 711.45 354.18 691.31 363.68 672.00 360.00 C 652.69 356.32 631.54 356.05 612.26 353.40 C 592.97 350.76 571.57 349.56 551.99 347.01 C 532.42 344.45 512.09 343.57 493.25 340.61 C 474.41 337.64 464.31 317.66 467.33 300.33 C 470.35 283.00 476.11 261.45 481.78 244.78 C 487.44 228.10 494.54 212.02 502.75 196.75 C 510.97 181.49 518.72 167.00 528.92 153.92 C 539.11 140.84 549.19 128.57 561.75 116.75 C 574.31 104.93 585.23 95.21 599.25 85.25 C 613.26 75.29 626.87 67.34 642.22 59.22 C 657.58 51.11 673.85 43.87 690.68 37.68 C 707.50 31.49 724.95 25.56 743.03 21.02 C 761.10 16.49 779.27 12.17 798.03 9.02 C 816.78 5.87 839.25 3.57 859.00 2.00
C 860.48 1.67 863.71 0.96 865.00 0.00
L 0.00 0.00
L 0.00 1116.00 Z"/>
</g>
<g fill="#000000" fill-opacity="0.38" stroke="None">
<path d="
M 859.00 2.00 
C 869.62 1.16 879.02 1.00 890.00 1.00
C 889.96 1.00 890.00 0.00 890.00 0.00
L 865.00 0.00
C 863.71 0.96 860.48 1.67 859.00 2.00 Z"/>
</g>
<g fill="#000000" fill-opacity="0.61" stroke="None">
<path d="
M 890.00 1.00 
C 896.33 1.00 902.67 1.00 909.00 1.00
C 908.96 1.00 909.00 0.00 909.00 0.00
L 890.00 0.00
C 890.00 0.00 889.96 1.00 890.00 1.00 Z"/>
</g>
<g fill="#000000" fill-opacity="0.38" stroke="None">
<path d="
M 909.00 1.00 
C 919.32 1.00 927.98 1.20 938.00 2.00
C 936.57 1.68 933.37 0.81 932.00 0.00
L 909.00 0.00
C 909.00 0.00 908.96 1.00 909.00 1.00 Z"/>
</g>
<g fill="#000000" fill-opacity="1.00" stroke="None">
<path d="
M 859.00 2.00 
C 839.25 3.57 816.78 5.87 798.03 9.02 C 779.27 12.17 761.10 16.49 743.03 21.02 C 724.95 25.56 707.50 31.49 690.68 37.68 C 673.85 43.87 657.58 51.11 642.22 59.22 C 626.87 67.34 613.26 75.29 599.25 85.25 C 585.23 95.21 574.31 104.93 561.75 116.75 C 549.19 128.57 539.11 140.84 528.92 153.92 C 518.72 167.00 510.97 181.49 502.75 196.75 C 494.54 212.02 487.44 228.10 481.78 244.78 C 476.11 261.45 470.35 283.00 467.33 300.33 C 464.31 317.66 474.41 337.64 493.25 340.61 C 512.09 343.57 532.42 344.45 551.99 347.01 C 571.57 349.56 592.97 350.76 612.26 353.40 C 631.54 356.05 652.69 356.32 672.00 360.00 C 691.31 363.68 711.45 354.18 717.03 336.02 C 722.60 317.87 726.78 300.58 735.23 284.23 C 743.68 267.88 752.73 258.59 766.25 246.25 C 779.77 233.90 793.08 227.97 809.93 220.93 C 826.77 213.88 847.74 210.16 866.00 210.00 C 884.26 209.84 908.81 209.63 925.75 216.20 C 942.70 222.77 955.53 226.90 969.25 239.75 C 982.96 252.60 990.16 262.35 997.68 280.32 C 1005.19 298.29 1006.57 318.01 1009.00 339.00 C 1011.44 359.99 1008.65 384.04 1010.00 407.00 C 1011.35 429.96 983.45 426.14 964.22 428.22 C 944.99 430.30 921.23 432.12 902.00 434.00 C 882.77 435.88 861.79 439.36 842.75 441.60 C 823.70 443.84 805.20 446.94 786.07 450.07 C 766.95 453.21 747.26 458.42 729.00 463.00 C 710.74 467.58 692.22 471.81 675.07 478.07 C 657.93 484.34 641.81 490.02 626.08 498.08 C 610.34 506.13 595.09 513.64 581.25 523.25 C 567.41 532.85 554.87 541.64 542.75 553.75 C 530.63 565.87 519.72 576.10 508.75 588.75 C 497.79 601.41 489.89 616.05 480.75 630.75 C 471.62 645.46 463.97 660.15 457.92 676.92 C 451.88 693.70 444.55 710.83 441.33 729.33 C 438.11 747.83 435.00 768.31 435.00 788.00
C 435.00 801.00 435.00 814.00 435.00 827.00
C 435.00 844.51 438.27 862.30 441.01 878.99 C 443.75 895.69 447.37 913.33 452.22 928.78 C 457.08 944.22 463.62 957.90 470.08 971.92 C 476.53 985.95 485.11 997.16 493.75 1009.25 C 502.38 1021.35 511.94 1031.55 523.30 1041.70 C 534.65 1051.86 545.82 1059.46 558.75 1067.25 C 571.69 1075.03 581.98 1081.31 596.31 1086.70 C 610.63 1092.08 626.21 1098.34 642.00 1102.00 C 657.79 1105.67 675.90 1109.58 692.75 1111.80 C 709.61 1114.03 732.88 1113.92 750.93 1113.93 C 768.97 1113.94 786.39 1111.34 802.98 1108.98 C 819.56 1106.61 835.43 1102.49 851.32 1098.32 C 867.22 1094.16 882.96 1089.42 897.92 1083.92 C 912.89 1078.43 925.42 1070.40 938.92 1062.92 C 952.42 1055.45 963.27 1047.25 975.30 1038.30 C 987.34 1029.36 996.86 1021.03 1008.25 1010.25 C 1019.64 999.47 1027.78 992.63 1039.75 980.75 C 1051.73 968.88 1062.08 990.44 1068.70 1001.30 C 1075.32 1012.17 1086.90 1025.27 1095.25 1036.75 C 1103.59 1048.24 1114.17 1057.57 1124.25 1068.75 C 1134.32 1079.94 1145.16 1087.57 1156.92 1097.08 C 1168.68 1106.59 1190.18 1108.87 1202.75 1099.75 C 1215.33 1090.64 1225.16 1080.77 1236.77 1071.77 C 1248.38 1062.77 1258.62 1052.41 1269.25 1043.26 C 1279.87 1034.12 1290.43 1026.94 1301.25 1016.25 C 1312.07 1005.56 1323.66 998.60 1334.25 988.25 C 1344.84 977.90 1356.47 970.93 1364.70 957.70 C 1372.92 944.46 1366.49 923.91 1356.77 912.23 C 1347.05 900.55 1340.18 889.47 1330.75 877.25 C 1321.32 865.02 1315.67 852.48 1308.75 838.25 C 1301.84 824.01 1296.71 809.29 1292.78 793.22 C 1288.85 777.15 1285.92 759.01 1285.00 742.00
C 1283.73 734.15 1284.25 724.75 1285.00 717.00
C 1285.00 712.40 1285.70 708.37 1286.00 704.00
C 1286.43 697.73 1286.00 691.28 1286.00 685.00
C 1286.00 676.67 1286.00 668.33 1286.00 660.00
C 1286.00 650.16 1286.95 639.79 1286.00 630.00
C 1284.12 610.58 1285.00 589.17 1285.00 569.00
C 1285.00 557.67 1285.00 546.33 1285.00 535.00
C 1285.00 474.33 1285.00 413.67 1285.00 353.00
C 1285.00 342.67 1285.00 332.33 1285.00 322.00
C 1285.00 232.90 1256.08 141.41 1184.30 85.70 C 1112.52 29.98 1026.68 9.04 938.00 2.00
C 927.98 1.20 919.32 1.00 909.00 1.00
C 902.67 1.00 896.33 1.00 890.00 1.00
C 879.02 1.00 869.62 1.16 859.00 2.00
M 1010.00 595.00 
C 1010.00 623.17 1009.00 651.72 1009.00 680.00
C 1009.00 699.66 1006.26 723.41 1003.67 741.67 C 1001.08 759.93 994.97 776.94 988.69 793.69 C 982.42 810.45 974.17 825.11 964.75 839.75 C 955.33 854.38 946.67 865.45 933.25 877.25 C 919.83 889.04 906.37 896.90 889.92 903.92 C 873.48 910.95 852.01 916.45 833.33 915.67 C 814.65 914.89 795.50 909.14 779.92 900.08 C 764.35 891.01 754.19 880.62 744.25 865.75 C 734.31 850.89 728.19 833.91 725.00 816.00 C 721.82 798.08 719.99 772.95 721.33 754.33 C 722.67 735.71 725.88 717.87 732.92 700.92 C 739.97 683.98 746.83 670.82 758.31 657.31 C 769.78 643.79 781.70 634.78 796.08 625.08 C 810.46 615.38 825.63 608.62 842.23 602.23 C 858.82 595.84 880.81 592.62 898.25 589.80 C 915.68 586.98 942.49 581.97 960.01 583.01 C 977.53 584.05 1010.00 569.30 1010.00 595.00 Z"/>
</g>
<g fill="#000000" fill-opacity="0.46" stroke="None">
<path d="
M 1285.00 353.00 
C 1285.00 352.96 1286.00 353.00 1286.00 353.00
C 1285.02 342.85 1285.93 331.56 1285.00 322.00
C 1285.00 332.33 1285.00 342.67 1285.00 353.00 Z"/>
</g>
<g fill="#010101" fill-opacity="0.62" stroke="None">
<path d="
M 1285.00 535.00 
C 1285.00 534.96 1286.00 535.00 1286.00 535.00
C 1286.00 504.78 1287.03 474.18 1286.00 444.00 C 1284.97 413.82 1288.74 383.04 1286.00 353.00
C 1286.00 353.00 1285.00 352.96 1285.00 353.00
C 1285.00 413.67 1285.00 474.33 1285.00 535.00 Z"/>
</g>
<g fill="#000000" fill-opacity="0.11" stroke="None">
<path d="
M 1286.00 535.00 
C 1286.00 546.33 1286.00 557.67 1286.00 569.00
C 1286.00 575.00 1286.00 581.00 1286.00 587.00
C 1286.00 586.96 1287.00 587.00 1287.00 587.00
C 1287.00 548.04 1287.82 507.83 1287.00 469.00 C 1286.18 430.17 1289.67 390.88 1286.00 353.00
C 1288.74 383.04 1284.97 413.82 1286.00 444.00 C 1287.03 474.18 1286.00 504.78 1286.00 535.00 Z"/>
</g>
<g fill="#000101" fill-opacity="0.73" stroke="None">
<path d="
M 1285.00 569.00 
C 1285.00 568.96 1286.00 569.00 1286.00 569.00
C 1286.00 557.67 1286.00 546.33 1286.00 535.00
C 1286.00 535.00 1285.00 534.96 1285.00 535.00
C 1285.00 546.33 1285.00 557.67 1285.00 569.00 Z"/>
</g>
<g fill="#010101" fill-opacity="0.89" stroke="None">
<path d="
M 1286.00 630.00 
C 1284.72 615.93 1286.00 601.14 1286.00 587.00
C 1286.00 581.00 1286.00 575.00 1286.00 569.00
C 1286.00 569.00 1285.00 568.96 1285.00 569.00
C 1285.00 589.17 1284.12 610.58 1286.00 630.00 Z"/>
</g>
<g fill="#000000" fill-opacity="0.00" stroke="None">
<path d="
M 1009.00 680.00 
C 1008.15 671.25 1007.98 661.49 1008.00 652.00 C 1008.03 642.51 1008.52 632.51 1008.00 623.00 C 1007.48 613.49 1008.46 602.29 1010.00 595.00
C 1010.00 569.30 977.53 584.05 960.01 583.01 C 942.49 581.97 915.68 586.98 898.25 589.80 C 880.81 592.62 858.82 595.84 842.23 602.23 C 825.63 608.62 810.46 615.38 796.08 625.08 C 781.70 634.78 769.78 643.79 758.31 657.31 C 746.83 670.82 739.97 683.98 732.92 700.92 C 725.88 717.87 722.67 735.71 721.33 754.33 C 719.99 772.95 721.82 798.08 725.00 816.00 C 728.19 833.91 734.31 850.89 744.25 865.75 C 754.19 880.62 764.35 891.01 779.92 900.08 C 795.50 909.14 814.65 914.89 833.33 915.67 C 852.01 916.45 873.48 910.95 889.92 903.92 C 906.37 896.90 919.83 889.04 933.25 877.25 C 946.67 865.45 955.33 854.38 964.75 839.75 C 974.17 825.11 982.42 810.45 988.69 793.69 C 994.97 776.94 1001.08 759.93 1003.67 741.67 C 1006.26 723.41 1009.00 699.66 1009.00 680.00 Z"/>
</g>
<g fill="#000000" fill-opacity="0.38" stroke="None">
<path d="
M 1286.00 630.00 
C 1286.00 629.96 1287.00 630.00 1287.00 630.00
C 1287.00 615.67 1287.00 601.33 1287.00 587.00
C 1287.00 587.00 1286.00 586.96 1286.00 587.00
C 1286.00 601.14 1284.72 615.93 1286.00 630.00 Z"/>
</g>
<g fill="#000000" fill-opacity="0.37" stroke="None">
<path d="
M 1009.00 680.00 
C 1009.00 651.72 1010.00 623.17 1010.00 595.00
C 1008.46 602.29 1007.48 613.49 1008.00 623.00 C 1008.52 632.51 1008.03 642.51 1008.00 652.00 C 1007.98 661.49 1008.15 671.25 1009.00 680.00 Z"/>
</g>
<g fill="#000000" fill-opacity="0.55" stroke="None">
<path d="
M 1286.00 660.00 
C 1286.00 659.96 1287.00 660.00 1287.00 660.00
C 1287.00 650.00 1287.00 640.00 1287.00 630.00
C 1287.00 630.00 1286.00 629.96 1286.00 630.00
C 1286.95 639.79 1286.00 650.16 1286.00 660.00 Z"/>
</g>
<g fill="#000000" fill-opacity="0.38" stroke="None">
<path d="
M 1286.00 685.00 
C 1286.00 684.96 1287.00 685.00 1287.00 685.00
C 1287.00 676.67 1287.00 668.33 1287.00 660.00
C 1287.00 660.00 1286.00 659.96 1286.00 660.00
C 1286.00 668.33 1286.00 676.67 1286.00 685.00 Z"/>
</g>
<g fill="#000000" fill-opacity="0.15" stroke="None">
<path d="
M 1286.00 704.00 
C 1287.02 698.33 1287.00 691.41 1287.00 685.00
C 1287.00 685.00 1286.00 684.96 1286.00 685.00
C 1286.00 691.28 1286.43 697.73 1286.00 704.00 Z"/>
</g>
<g fill="#000101" fill-opacity="0.77" stroke="None">
<path d="
M 1285.00 742.00 
C 1284.55 733.72 1285.00 725.29 1285.00 717.00
C 1284.25 724.75 1283.73 734.15 1285.00 742.00 Z"/>
</g>
<g fill="#000000" fill-opacity="0.42" stroke="None">
<path d="
M 435.00 827.00 
C 435.00 814.00 435.00 801.00 435.00 788.00
C 433.98 792.83 432.76 801.08 433.00 808.00 C 433.24 814.92 434.41 820.89 435.00 827.00 Z"/>
</g>
<g fill="#F5A718" fill-opacity="0.96" stroke="None">
<path d="
M 1534.00 1145.00 
C 1552.98 1141.34 1584.40 1139.20 1603.00 1145.00
C 1620.57 1146.65 1636.99 1148.40 1651.75 1159.25 C 1666.51 1170.10 1662.65 1192.16 1660.00 1208.00 C 1657.35 1223.83 1653.03 1244.08 1648.32 1259.32 C 1643.62 1274.56 1638.05 1291.66 1632.98 1305.98 C 1627.90 1320.29 1620.56 1339.01 1615.92 1351.92 C 1611.29 1364.84 1595.59 1388.60 1611.26 1395.74 C 1626.93 1402.88 1639.25 1382.27 1649.25 1373.25 C 1659.25 1364.22 1668.39 1350.94 1677.23 1339.23 C 1686.07 1327.52 1694.22 1314.23 1701.70 1300.70 C 1709.17 1287.16 1716.04 1272.36 1721.22 1257.22 C 1726.41 1242.09 1733.30 1225.44 1736.02 1209.02 C 1738.75 1192.61 1744.36 1172.11 1744.00 1155.00
C 1739.59 1152.85 1746.07 1136.22 1745.00 1132.00
L 1745.00 1109.00
C 1738.60 1094.21 1726.56 1088.34 1711.07 1084.93 C 1695.59 1081.51 1679.90 1076.77 1663.00 1076.00 C 1646.10 1075.23 1626.18 1073.71 1609.00 1075.00 C 1591.82 1076.29 1571.62 1076.40 1555.22 1079.22 C 1538.82 1082.04 1524.03 1085.70 1508.67 1089.67 C 1493.31 1093.64 1481.22 1099.76 1467.03 1105.03 C 1452.83 1110.30 1443.70 1119.98 1429.75 1125.75 C 1415.80 1131.53 1412.79 1156.80 1430.99 1155.99 C 1449.19 1155.19 1464.11 1150.89 1482.00 1150.00 C 1499.89 1149.11 1516.22 1146.41 1534.00 1145.00 Z"/>
</g>
<g fill="#F6A818" fill-opacity="0.98" stroke="None">
<path d="
M 0.00 1116.00 
L 0.00 1129.00
C 30.01 1162.64 64.61 1188.50 101.23 1215.77 C 137.85 1243.04 173.82 1267.91 214.75 1291.25 C 255.68 1314.59 294.67 1336.73 339.08 1355.92 C 383.49 1375.11 427.97 1393.05 476.08 1407.92 C 524.18 1422.80 576.45 1435.75 628.22 1444.78 C 679.99 1453.81 742.66 1463.47 797.00 1465.00
C 800.70 1464.36 805.72 1462.87 811.00 1464.00
C 828.25 1467.70 848.60 1466.00 867.00 1466.00
C 874.00 1466.00 881.00 1466.00 888.00 1466.00
C 903.76 1466.00 921.31 1467.15 936.00 1464.00
C 940.41 1463.06 943.14 1464.40 946.00 1465.00
C 973.82 1465.03 1004.85 1459.66 1031.93 1456.93 C 1059.01 1454.19 1086.02 1448.67 1111.99 1443.99 C 1137.96 1439.31 1163.03 1432.92 1187.98 1426.98 C 1212.92 1421.03 1236.98 1413.91 1260.92 1406.92 C 1284.87 1399.94 1306.90 1391.09 1329.78 1382.78 C 1352.65 1374.47 1375.15 1365.71 1396.92 1355.92 C 1418.69 1346.13 1438.58 1336.25 1459.77 1325.77 C 1480.96 1315.29 1498.28 1303.01 1519.25 1292.25 C 1540.22 1281.50 1553.91 1266.06 1575.25 1255.25 C 1596.60 1244.45 1598.54 1203.54 1571.00 1202.00 C 1543.46 1200.46 1523.75 1214.62 1500.00 1224.00
C 1498.23 1224.99 1498.19 1224.75 1497.00 1225.00
C 1440.54 1248.44 1388.88 1263.40 1329.22 1280.22 C 1269.57 1297.04 1209.13 1309.70 1145.67 1319.67 C 1082.21 1329.64 1007.55 1336.67 941.00 1338.00
C 938.43 1338.52 936.98 1339.23 934.00 1339.00
C 906.74 1341.64 877.23 1337.73 850.00 1339.00 C 822.77 1340.27 796.82 1335.00 770.00 1335.00
C 770.54 1335.11 772.63 1336.30 773.00 1337.00
C 770.52 1336.26 765.18 1338.81 765.00 1335.00
C 737.63 1333.60 708.77 1328.99 682.00 1326.00 C 655.23 1323.01 627.87 1319.51 602.02 1314.98 C 576.18 1310.44 550.98 1305.48 526.00 1300.00 C 501.02 1294.52 476.15 1289.34 452.01 1282.99 C 427.87 1276.65 404.43 1269.83 381.08 1262.92 C 357.72 1256.02 335.28 1247.99 312.68 1240.32 C 290.08 1232.66 268.32 1224.16 246.68 1215.32 C 225.04 1206.49 203.09 1198.19 182.23 1188.77 C 161.37 1179.35 140.48 1168.86 120.25 1159.75 C 100.01 1150.65 80.25 1137.03 60.67 1128.33 C 41.10 1119.62 17.95 1096.25 0.00 1116.00
M 919.00 1340.00 
C 915.58 1342.21 910.18 1340.42 906.00 1341.00
C 909.42 1338.79 914.82 1340.58 919.00 1340.00 Z"/>
</g>
<g fill="#000000" fill-opacity="0.00" stroke="None">
<path d="
M 0.00 1467.00 
L 817.00 1467.00
C 813.22 1466.01 806.77 1465.36 803.00 1465.00
C 801.02 1465.11 798.98 1465.06 797.00 1465.00
C 742.66 1463.47 679.99 1453.81 628.22 1444.78 C 576.45 1435.75 524.18 1422.80 476.08 1407.92 C 427.97 1393.05 383.49 1375.11 339.08 1355.92 C 294.67 1336.73 255.68 1314.59 214.75 1291.25 C 173.82 1267.91 137.85 1243.04 101.23 1215.77 C 64.61 1188.50 30.01 1162.64 0.00 1129.00
L 0.00 1467.00 Z"/>
</g>
<g fill="#F3A117" fill-opacity="0.24" stroke="None">
<path d="
M 1744.00 1155.00 
C 1744.00 1155.00 1744.50 1155.00 1745.00 1155.00
L 1745.00 1132.00
C 1746.07 1136.22 1739.59 1152.85 1744.00 1155.00 Z"/>
</g>
<g fill="#EFA819" fill-opacity="0.38" stroke="None">
<path d="
M 1534.00 1145.00 
C 1555.87 1143.26 1581.16 1142.95 1603.00 1145.00
C 1584.40 1139.20 1552.98 1141.34 1534.00 1145.00 Z"/>
</g>
<g fill="#FF8B12" fill-opacity="0.09" stroke="None">
<path d="
M 1497.00 1225.00 
C 1498.19 1224.75 1498.23 1224.99 1500.00 1224.00
C 1499.01 1224.39 1498.02 1224.58 1497.00 1225.00 Z"/>
</g>
<g fill="#F6A718" fill-opacity="0.51" stroke="None">
<path d="
M 770.00 1335.00 
C 768.34 1335.00 766.65 1335.08 765.00 1335.00
C 765.18 1338.81 770.52 1336.26 773.00 1337.00
C 772.63 1336.30 770.54 1335.11 770.00 1335.00 Z"/>
</g>
<g fill="#FCB32B" fill-opacity="0.18" stroke="None">
<path d="
M 934.00 1339.00 
C 936.98 1339.23 938.43 1338.52 941.00 1338.00
C 938.59 1338.05 935.75 1338.83 934.00 1339.00 Z"/>
</g>
<g fill="#F6A718" fill-opacity="0.72" stroke="None">
<path d="
M 919.00 1340.00 
C 914.82 1340.58 909.42 1338.79 906.00 1341.00
C 910.18 1340.42 915.58 1342.21 919.00 1340.00 Z"/>
</g>
<g fill="#F6A719" fill-opacity="0.64" stroke="None">
<path d="
M 797.00 1465.00 
C 798.98 1465.06 801.02 1465.11 803.00 1465.00
C 805.85 1464.84 808.11 1463.92 811.00 1464.00
C 805.72 1462.87 800.70 1464.36 797.00 1465.00 Z"/>
</g>
<g fill="#F6A718" fill-opacity="0.69" stroke="None">
<path d="
M 936.00 1464.00 
C 938.89 1463.92 941.08 1464.92 944.00 1465.00
C 944.50 1465.01 945.50 1465.00 946.00 1465.00
C 943.14 1464.40 940.41 1463.06 936.00 1464.00 Z"/>
</g>
<g fill="#F7A418" fill-opacity="0.14" stroke="None">
<path d="
M 803.00 1465.00 
C 806.77 1465.36 813.22 1466.01 817.00 1467.00
L 867.00 1467.00
C 867.00 1466.50 867.00 1466.00 867.00 1466.00
C 848.60 1466.00 828.25 1467.70 811.00 1464.00
C 808.11 1463.92 805.85 1464.84 803.00 1465.00 Z"/>
</g>
<g fill="#F8A518" fill-opacity="0.16" stroke="None">
<path d="
M 888.00 1466.00 
C 888.04 1466.00 888.00 1467.00 888.00 1467.00
L 930.00 1467.00
C 933.88 1464.96 939.92 1466.73 944.00 1465.00
C 941.08 1464.92 938.89 1463.92 936.00 1464.00
C 921.31 1467.15 903.76 1466.00 888.00 1466.00 Z"/>
</g>
<g fill="#F6A917" fill-opacity="0.43" stroke="None">
<path d="
M 867.00 1467.00 
L 888.00 1467.00
C 888.00 1467.00 888.04 1466.00 888.00 1466.00
C 881.00 1466.00 874.00 1466.00 867.00 1466.00
C 867.00 1466.00 867.00 1466.50 867.00 1467.00 Z"/>
</g>
</svg>